<?xml version="1.0" encoding="utf-8"?>
<!-- Generator: Adobe Illustrator 19.0.0, SVG Export Plug-In . SVG Version: 6.00 Build 0)  -->
<svg version="1.1" xmlns="http://www.w3.org/2000/svg" xmlns:xlink="http://www.w3.org/1999/xlink" x="0px" y="0px"
	 viewBox="0 0 196 125" style="enable-background:new 0 0 196 125;" xml:space="preserve">
<style type="text/css">
	.st0{display:none;}
	.st1{display:inline;}
	.st2{font-family:'OpenSans-Extrabold';}
	.st3{font-size:69.4215px;}
	.st4{display:inline;fill:#5BC0BE;stroke:#000000;stroke-width:3;stroke-miterlimit:10;}
	.st5{display:inline;fill:#4A368B;stroke:#000000;stroke-width:3;stroke-miterlimit:10;}
	.st6{display:inline;stroke:#000000;stroke-width:3;stroke-miterlimit:10;}
	.st7{display:inline;fill:#FFFFFF;stroke:#FFFFFF;stroke-width:3;stroke-miterlimit:10;}
	.st8{display:inline;fill:none;stroke:#000000;stroke-width:3;stroke-miterlimit:10;}
	.st9{fill:none;stroke:#FFFFFF;stroke-width:3;stroke-miterlimit:10;}
	.st10{display:inline;fill:#FFFFFF;}
	.st11{font-family:'OpenSans';}
	.st12{font-size:47.5698px;}
	.st13{display:none;stroke:#000000;stroke-width:3;stroke-miterlimit:10;}
	.st14{fill:#FFFFFF;stroke:#FFFFFF;stroke-width:3;stroke-miterlimit:10;}
</style>
<g id="Laag_4" class="st0">
	<text id="XMLID_2_" transform="matrix(0.9987 0 0 1 187.8345 153.5966)" class="st1 st2 st3">Dumbel</text>
	
		<text id="XMLID_3_" transform="matrix(1.0805 0 0 1 198.8347 150.322)" class="st2" style="display:inline;fill:#5BC0BE;stroke:#5BC0BE;stroke-width:3;stroke-miterlimit:10; font-size:58.9859px;">Dumbel</text>
	
		<text id="XMLID_1_" transform="matrix(1.0805 0 0 1 200.1679 150.3221)" class="st2" style="display:inline;fill:#4A368B;stroke:#4A368B;stroke-width:3;stroke-miterlimit:10; font-size:58.9859px;">Dumbel</text>
</g>
<g id="Laag_7" class="st0">
	<text id="XMLID_6_" transform="matrix(1.0805 0 0 1 210.0007 133.2432)" class="st1 st2" style="font-size:58.9859px;">Dumbel</text>
	
		<text id="XMLID_5_" transform="matrix(1.0805 0 0 1 210.001 136.9098)" class="st2" style="display:inline;fill:#5BC0BE;stroke:#5BC0BE;stroke-width:3;stroke-miterlimit:10; font-size:58.9859px;">Dumbel</text>
	
		<text id="XMLID_4_" transform="matrix(1.0805 0 0 1 210.0009 139.2435)" class="st2" style="display:inline;fill:#4A368B;stroke:#4A368B;stroke-width:3;stroke-miterlimit:10; font-size:58.9859px;">Dumbel</text>
</g>
<g id="Laag_8" class="st0">
	<text id="XMLID_10_" transform="matrix(1.0805 0 0 1 200.4226 147.9099)" class="st1 st2" style="font-size:58.9859px;">Dumbel</text>
	
		<text id="XMLID_9_" transform="matrix(1.0805 0 0 1 200.4229 151.5764)" class="st2" style="display:inline;fill:#5BC0BE;stroke:#5BC0BE;stroke-width:3;stroke-miterlimit:10; font-size:58.9859px;">Dumbel</text>
	
		<text id="XMLID_7_" transform="matrix(1.0805 0 0 1 200.4228 153.9101)" class="st2" style="display:inline;fill:#4A368B;stroke:#4A368B;stroke-width:3;stroke-miterlimit:10; font-size:58.9859px;">Dumbel</text>
</g>
<g id="text-zw" class="st0">
	<text id="XMLID_11_" transform="matrix(1 0 0 1 235.8346 148.3333)" class="st1 st11 st12">Dumbel</text>
</g>
<g id="oren" class="st0">
	<path id="XMLID_18_" class="st4" d="M284.5,95.5h-2c-6.6,0-12-5.4-12-12v-37c0-6.6,5.4-12,12-12h2c6.6,0,12,5.4,12,12v37
		C296.5,90.1,291.1,95.5,284.5,95.5z"/>
	<path id="XMLID_17_" class="st4" d="M354,34.5h2c6.6,0,12,5.4,12,12v37c0,6.6-5.4,12-12,12h-2c-6.6,0-12-5.4-12-12v-37
		C342,39.9,347.4,34.5,354,34.5z"/>
	<path id="XMLID_16_" class="st5" d="M263.8,86.9L263.8,86.9c-3.7,0-6.7-3-6.7-6.7V49.8c0-3.7,3-6.7,6.7-6.7l0,0
		c3.7,0,6.7,3,6.7,6.7v30.4C270.5,83.9,267.4,86.9,263.8,86.9z"/>
	<path id="XMLID_15_" class="st5" d="M374.7,43.1L374.7,43.1c3.7,0,6.7,3,6.7,6.7v30.4c0,3.7-3,6.7-6.7,6.7l0,0
		c-3.7,0-6.7-3-6.7-6.7V49.8C368,46.1,371.1,43.1,374.7,43.1z"/>
	<path id="XMLID_14_" class="st5" d="M252.3,74.2L252.3,74.2c-2.4,0-4.3-1.9-4.3-4.3v-9.7c0-2.4,1.9-4.3,4.3-4.3h0
		c2.4,0,4.3,2,4.3,4.3v9.7C256.7,72.2,254.7,74.2,252.3,74.2z"/>
	<path id="XMLID_13_" class="st5" d="M386.2,55.8L386.2,55.8c2.4,0,4.3,2,4.3,4.3v9.7c0,2.4-2,4.3-4.3,4.3l0,0
		c-2.4,0-4.3-1.9-4.3-4.3v-9.7C381.8,57.8,383.8,55.8,386.2,55.8z"/>
</g>
<g id="ogen" class="st0">
	<ellipse id="XMLID_38_" class="st6" cx="283.7" cy="65.2" rx="7.7" ry="12.9"/>
	<ellipse id="XMLID_37_" class="st7" cx="287.1" cy="57.8" rx="2.6" ry="3.2"/>
	<ellipse id="XMLID_35_" class="st6" cx="354.7" cy="65.2" rx="7.7" ry="12.9"/>
	<ellipse id="XMLID_34_" class="st7" cx="358.1" cy="57.8" rx="2.6" ry="3.2"/>
</g>
<g id="mond-l" class="st0">
	<line id="XMLID_32_" class="st8" x1="611" y1="178.5" x2="657" y2="178.5"/>
</g>
<g id="mond-c" class="st0">
	<path id="XMLID_8_" class="st8" d="M296.5,70.5c12.2,12.2,32.6,11.7,45.5-1.3"/>
</g>
<g id="Laag_9" class="st0">
	<rect id="XMLID_12_" x="7.3" y="-10.7" class="st1" width="183.3" height="175.9"/>
</g>
<g id="oren_1_">
	<path id="XMLID_31_" class="st9" d="M64.5,95.5h-2c-6.6,0-12-5.4-12-12v-37c0-6.6,5.4-12,12-12h2c6.6,0,12,5.4,12,12v37
		C76.5,90.1,71.1,95.5,64.5,95.5z"/>
	<path id="XMLID_30_" class="st9" d="M134,34.5h2c6.6,0,12,5.4,12,12v37c0,6.6-5.4,12-12,12h-2c-6.6,0-12-5.4-12-12v-37
		C122,39.9,127.4,34.5,134,34.5z"/>
	<path id="XMLID_29_" class="st9" d="M43.8,86.9L43.8,86.9c-3.7,0-6.7-3-6.7-6.7V49.8c0-3.7,3-6.7,6.7-6.7h0c3.7,0,6.7,3,6.7,6.7
		v30.4C50.5,83.9,47.4,86.9,43.8,86.9z"/>
	<path id="XMLID_28_" class="st9" d="M154.7,43.1L154.7,43.1c3.7,0,6.7,3,6.7,6.7v30.4c0,3.7-3,6.7-6.7,6.7l0,0
		c-3.7,0-6.7-3-6.7-6.7V49.8C148,46.1,151.1,43.1,154.7,43.1z"/>
	<path id="XMLID_27_" class="st9" d="M32.3,74.2L32.3,74.2c-2.4,0-4.3-1.9-4.3-4.3v-9.7c0-2.4,1.9-4.3,4.3-4.3h0
		c2.4,0,4.3,2,4.3,4.3v9.7C36.7,72.2,34.7,74.2,32.3,74.2z"/>
	<path id="XMLID_26_" class="st9" d="M166.2,55.8L166.2,55.8c2.4,0,4.3,2,4.3,4.3v9.7c0,2.4-1.9,4.3-4.3,4.3h0
		c-2.4,0-4.3-1.9-4.3-4.3v-9.7C161.8,57.8,163.8,55.8,166.2,55.8z"/>
</g>
<g id="text-w" class="st0">
	<text id="XMLID_20_" transform="matrix(1 0 0 1 10.3345 148.3332)" class="st10 st11 st12">Dumbel</text>
</g>
<g id="mond-c_2_">
	<path id="mond-c_1_" class="st9" d="M76.5,70.5c12.2,12.2,32.6,11.7,45.5-1.3"/>
</g>
<g id="ogen_1_">
	<ellipse id="XMLID_25_" class="st13" cx="63.7" cy="65.2" rx="7.7" ry="12.9"/>
	<ellipse id="XMLID_24_" class="st14" cx="67.1" cy="57.8" rx="2.6" ry="3.2"/>
	<ellipse id="XMLID_23_" class="st13" cx="134.7" cy="65.2" rx="7.7" ry="12.9"/>
	<ellipse id="XMLID_22_" class="st14" cx="138.1" cy="57.8" rx="2.6" ry="3.2"/>
</g>
</svg>
