<?xml version="1.0" encoding="utf-8"?>
<!-- Generator: Adobe Illustrator 19.0.0, SVG Export Plug-In . SVG Version: 6.00 Build 0)  -->
<svg version="1.1" xmlns="http://www.w3.org/2000/svg" xmlns:xlink="http://www.w3.org/1999/xlink" x="0px" y="0px"
	 viewBox="0 0 147.8 66" style="enable-background:new 0 0 147.8 66;" xml:space="preserve">
<style type="text/css">
	.st0{display:none;}
	.st1{fill:#5BC0BE;stroke:#000000;stroke-width:3;stroke-miterlimit:10;}
	.st2{fill:#4A368B;stroke:#000000;stroke-width:3;stroke-miterlimit:10;}
	.st3{stroke:#000000;stroke-width:3;stroke-miterlimit:10;}
	.st4{fill:#FFFFFF;stroke:#FFFFFF;stroke-width:3;stroke-miterlimit:10;}
	.st5{display:inline;fill:none;stroke:#000000;stroke-width:3;stroke-miterlimit:10;}
	.st6{fill:none;stroke:#000000;stroke-width:3;stroke-miterlimit:10;}
	.st7{display:inline;}
	.st8{display:inline;fill:none;stroke:#FFFFFF;stroke-width:3;stroke-miterlimit:10;}
	.st9{display:inline;fill:#FFFFFF;stroke:#FFFFFF;stroke-width:3;stroke-miterlimit:10;}
</style>
<g id="Laag_4" class="st0">
	
		<text id="XMLID_2_" transform="matrix(0.9987 0 0 1 164.0845 124.3466)" class="st7" style="font-family:'OpenSans-Extrabold'; font-size:69.4215px;">Dumbel</text>
	
		<text id="XMLID_3_" transform="matrix(1.0805 0 0 1 175.0847 121.072)" style="display:inline;fill:#5BC0BE;stroke:#5BC0BE;stroke-width:3;stroke-miterlimit:10; font-family:'OpenSans-Extrabold'; font-size:58.9859px;">Dumbel</text>
	
		<text id="XMLID_1_" transform="matrix(1.0805 0 0 1 176.4179 121.0721)" style="display:inline;fill:#4A368B;stroke:#4A368B;stroke-width:3;stroke-miterlimit:10; font-family:'OpenSans-Extrabold'; font-size:58.9859px;">Dumbel</text>
</g>
<g id="Laag_7" class="st0">
	
		<text id="XMLID_6_" transform="matrix(1.0805 0 0 1 186.2507 103.9932)" class="st7" style="font-family:'OpenSans-Extrabold'; font-size:58.9859px;">Dumbel</text>
	
		<text id="XMLID_5_" transform="matrix(1.0805 0 0 1 186.251 107.6598)" style="display:inline;fill:#5BC0BE;stroke:#5BC0BE;stroke-width:3;stroke-miterlimit:10; font-family:'OpenSans-Extrabold'; font-size:58.9859px;">Dumbel</text>
	
		<text id="XMLID_4_" transform="matrix(1.0805 0 0 1 186.2509 109.9935)" style="display:inline;fill:#4A368B;stroke:#4A368B;stroke-width:3;stroke-miterlimit:10; font-family:'OpenSans-Extrabold'; font-size:58.9859px;">Dumbel</text>
</g>
<g id="Laag_8" class="st0">
	
		<text id="XMLID_10_" transform="matrix(1.0805 0 0 1 176.6726 118.6599)" class="st7" style="font-family:'OpenSans-Extrabold'; font-size:58.9859px;">Dumbel</text>
	
		<text id="XMLID_9_" transform="matrix(1.0805 0 0 1 176.6729 122.3264)" style="display:inline;fill:#5BC0BE;stroke:#5BC0BE;stroke-width:3;stroke-miterlimit:10; font-family:'OpenSans-Extrabold'; font-size:58.9859px;">Dumbel</text>
	
		<text id="XMLID_7_" transform="matrix(1.0805 0 0 1 176.6728 124.6601)" style="display:inline;fill:#4A368B;stroke:#4A368B;stroke-width:3;stroke-miterlimit:10; font-family:'OpenSans-Extrabold'; font-size:58.9859px;">Dumbel</text>
</g>
<g id="text-zw" class="st0">
	
		<text id="XMLID_11_" transform="matrix(1 0 0 1 212.0846 119.0833)" class="st7" style="font-family:'OpenSans'; font-size:47.5698px;">Dumbel</text>
</g>
<g id="oren">
	<path id="XMLID_18_" class="st1" d="M39.8,63.3h-2c-6.6,0-12-5.4-12-12v-37c0-6.6,5.4-12,12-12h2c6.6,0,12,5.4,12,12v37
		C51.8,57.8,46.3,63.3,39.8,63.3z"/>
	<path id="XMLID_17_" class="st1" d="M109.3,2.3h2c6.6,0,12,5.4,12,12v37c0,6.6-5.4,12-12,12h-2c-6.6,0-12-5.4-12-12v-37
		C97.3,7.7,102.7,2.3,109.3,2.3z"/>
	<path id="XMLID_16_" class="st2" d="M19,54.7L19,54.7c-3.7,0-6.7-3-6.7-6.7V17.5c0-3.7,3-6.7,6.7-6.7h0c3.7,0,6.7,3,6.7,6.7V48
		C25.7,51.6,22.7,54.7,19,54.7z"/>
	<path id="XMLID_15_" class="st2" d="M130,10.8L130,10.8c3.7,0,6.7,3,6.7,6.7V48c0,3.7-3,6.7-6.7,6.7l0,0c-3.7,0-6.7-3-6.7-6.7V17.5
		C123.3,13.9,126.3,10.8,130,10.8z"/>
	<path id="XMLID_14_" class="st2" d="M7.6,41.9L7.6,41.9c-2.4,0-4.3-2-4.3-4.3v-9.7c0-2.4,1.9-4.3,4.3-4.3h0c2.4,0,4.3,1.9,4.3,4.3
		v9.7C11.9,40,10,41.9,7.6,41.9z"/>
	<path id="XMLID_13_" class="st2" d="M141.4,23.6L141.4,23.6c2.4,0,4.3,1.9,4.3,4.3v9.7c0,2.4-1.9,4.3-4.3,4.3h0
		c-2.4,0-4.3-2-4.3-4.3v-9.7C137.1,25.5,139,23.6,141.4,23.6z"/>
</g>
<g id="ogen">
	<ellipse id="XMLID_66_" class="st3" cx="38.9" cy="33" rx="7.7" ry="12.9"/>
	<ellipse id="XMLID_65_" class="st4" cx="42.4" cy="25.5" rx="2.6" ry="3.2"/>
	<ellipse id="XMLID_64_" class="st3" cx="109.9" cy="33" rx="7.7" ry="12.9"/>
	<ellipse id="XMLID_63_" class="st4" cx="113.4" cy="25.5" rx="2.6" ry="3.2"/>
</g>
<g id="mond-l" class="st0">
	<line id="XMLID_32_" class="st5" x1="587.3" y1="149.3" x2="633.3" y2="149.3"/>
</g>
<g id="mond-c">
	<path id="XMLID_8_" class="st6" d="M51.8,38.3C64,50.5,84.3,49.9,97.3,37"/>
</g>
<g id="Laag_9" class="st0">
	<rect id="XMLID_12_" x="-16.4" y="-39.9" class="st7" width="183.3" height="175.9"/>
</g>
<g id="oren_1_" class="st0">
	<path id="XMLID_31_" class="st8" d="M40.8,66.3h-2c-6.6,0-12-5.4-12-12v-37c0-6.6,5.4-12,12-12h2c6.6,0,12,5.4,12,12v37
		C52.8,60.8,47.3,66.3,40.8,66.3z"/>
	<path id="XMLID_30_" class="st8" d="M110.3,5.3h2c6.6,0,12,5.4,12,12v37c0,6.6-5.4,12-12,12h-2c-6.6,0-12-5.4-12-12v-37
		C98.3,10.6,103.7,5.3,110.3,5.3z"/>
	<path id="XMLID_29_" class="st8" d="M20,57.7L20,57.7c-3.7,0-6.7-3-6.7-6.7V20.5c0-3.7,3-6.7,6.7-6.7h0c3.7,0,6.7,3,6.7,6.7V51
		C26.7,54.6,23.7,57.7,20,57.7z"/>
	<path id="XMLID_28_" class="st8" d="M131,13.8L131,13.8c3.7,0,6.7,3,6.7,6.7V51c0,3.7-3,6.7-6.7,6.7l0,0c-3.7,0-6.7-3-6.7-6.7V20.5
		C124.3,16.9,127.3,13.8,131,13.8z"/>
	<path id="XMLID_27_" class="st8" d="M8.6,44.9L8.6,44.9c-2.4,0-4.3-2-4.3-4.3v-9.7c0-2.4,1.9-4.3,4.3-4.3h0c2.4,0,4.3,1.9,4.3,4.3
		v9.7C12.9,43,11,44.9,8.6,44.9z"/>
	<path id="XMLID_26_" class="st8" d="M142.4,26.6L142.4,26.6c2.4,0,4.3,1.9,4.3,4.3v9.7c0,2.4-1.9,4.3-4.3,4.3h0
		c-2.4,0-4.3-2-4.3-4.3v-9.7C138.1,28.5,140,26.6,142.4,26.6z"/>
</g>
<g id="text-w" class="st0">
	
		<text id="XMLID_20_" transform="matrix(1 0 0 1 -13.4155 119.0832)" style="display:inline;fill:#FFFFFF; font-family:'OpenSans'; font-size:47.5698px;">Dumbel</text>
</g>
<g id="mond-c_2_" class="st0">
	<path id="mond-c_1_" class="st8" d="M52.8,41.3C65,53.5,85.3,52.9,98.3,40"/>
</g>
<g id="ogen_1_" class="st0">
	<ellipse id="XMLID_25_" class="st3" cx="39.9" cy="36" rx="7.7" ry="12.9"/>
	<ellipse id="XMLID_24_" class="st9" cx="43.4" cy="28.5" rx="2.6" ry="3.2"/>
	<ellipse id="XMLID_23_" class="st3" cx="110.9" cy="36" rx="7.7" ry="12.9"/>
	<ellipse id="XMLID_22_" class="st9" cx="114.4" cy="28.5" rx="2.6" ry="3.2"/>
</g>
</svg>
